<svg xmlns="http://www.w3.org/2000/svg" xmlns:xlink="http://www.w3.org/1999/xlink" version="1.1" x="0px" y="0px" viewBox="0 0 100 125" enable-background="new 0 0 100 100" xml:space="preserve"><rect x="3.5" y="44.5" fill="none" stroke="#000000" stroke-miterlimit="10" width="93" height="22"/><rect x="3.5" y="67.5" fill="none" stroke="#000000" stroke-miterlimit="10" width="3" height="3"/><rect x="6.5" y="67.5" fill="none" stroke="#000000" stroke-miterlimit="10" width="3" height="3"/><rect x="9.5" y="67.5" fill="none" stroke="#000000" stroke-miterlimit="10" width="3" height="3"/><rect x="12.5" y="67.5" fill="none" stroke="#000000" stroke-miterlimit="10" width="3" height="3"/><rect x="15.5" y="67.5" fill="none" stroke="#000000" stroke-miterlimit="10" width="3" height="3"/><rect x="18.5" y="67.5" fill="none" stroke="#000000" stroke-miterlimit="10" width="3" height="3"/><rect x="21.5" y="67.5" fill="none" stroke="#000000" stroke-miterlimit="10" width="3" height="3"/><rect x="24.5" y="67.5" fill="none" stroke="#000000" stroke-miterlimit="10" width="3" height="3"/><rect x="27.5" y="67.5" fill="none" stroke="#000000" stroke-miterlimit="10" width="3" height="3"/><rect x="30.5" y="67.5" fill="none" stroke="#000000" stroke-miterlimit="10" width="3" height="3"/><rect x="33.5" y="67.5" fill="none" stroke="#000000" stroke-miterlimit="10" width="2" height="3"/><rect x="35.5" y="67.5" fill="none" stroke="#000000" stroke-miterlimit="10" width="3" height="3"/><rect x="38.5" y="67.5" fill="none" stroke="#000000" stroke-miterlimit="10" width="3" height="3"/><rect x="41.5" y="67.5" fill="none" stroke="#000000" stroke-miterlimit="10" width="3" height="3"/><rect x="44.5" y="67.5" fill="none" stroke="#000000" stroke-miterlimit="10" width="3" height="3"/><rect x="47.5" y="67.5" fill="none" stroke="#000000" stroke-miterlimit="10" width="3" height="3"/><rect x="50.5" y="67.5" fill="none" stroke="#000000" stroke-miterlimit="10" width="3" height="3"/><rect x="53.5" y="67.5" fill="none" stroke="#000000" stroke-miterlimit="10" width="3" height="3"/><rect x="56.5" y="67.5" fill="none" stroke="#000000" stroke-miterlimit="10" width="3" height="3"/><rect x="59.5" y="67.5" fill="none" stroke="#000000" stroke-miterlimit="10" width="3" height="3"/><rect x="67.5" y="67.5" fill="none" stroke="#000000" stroke-miterlimit="10" width="3" height="3"/><rect x="70.5" y="67.5" fill="none" stroke="#000000" stroke-miterlimit="10" width="3" height="3"/><rect x="73.5" y="67.5" fill="none" stroke="#000000" stroke-miterlimit="10" width="3" height="3"/><rect x="76.5" y="67.5" fill="none" stroke="#000000" stroke-miterlimit="10" width="3" height="3"/><rect x="79.5" y="67.5" fill="none" stroke="#000000" stroke-miterlimit="10" width="3" height="3"/><rect x="82.5" y="67.5" fill="none" stroke="#000000" stroke-miterlimit="10" width="3" height="3"/><rect x="85.5" y="67.5" fill="none" stroke="#000000" stroke-miterlimit="10" width="3" height="3"/><rect x="88.5" y="67.5" fill="none" stroke="#000000" stroke-miterlimit="10" width="3" height="3"/><rect x="91.5" y="67.5" fill="none" stroke="#000000" stroke-miterlimit="10" width="3" height="3"/><rect x="94.5" y="67.5" fill="none" stroke="#000000" stroke-miterlimit="10" width="2" height="3"/><rect x="59.5" y="67.5" stroke="#000000" stroke-miterlimit="10" width="2" height="3"/><rect x="9.5" y="50.5" fill="none" stroke="#000000" stroke-miterlimit="10" width="9" height="10"/><rect x="26.5" y="50.5" fill="none" stroke="#000000" stroke-miterlimit="10" width="9" height="10"/><rect x="43.5" y="50.5" fill="none" stroke="#000000" stroke-miterlimit="10" width="9" height="10"/><rect x="64.5" y="50.5" fill="none" stroke="#000000" stroke-miterlimit="10" width="9" height="10"/><rect x="81.5" y="50.5" fill="none" stroke="#000000" stroke-miterlimit="10" width="9" height="10"/><rect x="3" y="45" fill="none" width="6" height="22"/><rect x="7" y="61" fill="none" width="88" height="5"/><rect x="7" y="45" fill="none" width="89" height="5"/><rect x="19" y="49" fill="none" width="6" height="15"/><rect x="36" y="48" fill="none" width="6" height="16"/><rect x="53" y="48" fill="none" width="9" height="14"/><rect x="63" y="47" fill="none" width="0" height="15.16"/><rect x="74" y="48" fill="none" width="6" height="16"/><rect x="91" y="48" fill="none" width="4" height="16"/><rect x="1.5" y="44.5" fill="none" stroke="#000000" stroke-miterlimit="10" width="2" height="13"/><rect x="1.5" y="65.5" fill="none" stroke="#000000" stroke-miterlimit="10" width="2" height="5"/><rect x="1.5" y="59.5" fill="none" stroke="#000000" stroke-miterlimit="10" width="2" height="4"/><rect x="96.5" y="44.5" fill="none" stroke="#000000" stroke-miterlimit="10" width="2" height="13"/><rect x="96.5" y="65.5" fill="none" stroke="#000000" stroke-miterlimit="10" width="2" height="5"/><rect x="96.5" y="59.5" fill="none" stroke="#000000" stroke-miterlimit="10" width="2" height="4"/><text x="0" y="115" fill="#000000" font-size="5px" font-weight="bold" font-family="'Helvetica Neue', Helvetica, Arial-Unicode, Arial, Sans-serif">Created by Matej Design</text><text x="0" y="120" fill="#000000" font-size="5px" font-weight="bold" font-family="'Helvetica Neue', Helvetica, Arial-Unicode, Arial, Sans-serif">from the Noun Project</text></svg>